<?xml version="1.0" encoding="UTF-8" standalone="no"?>
<svg
   xmlns:dc="http://purl.org/dc/elements/1.1/"
   xmlns:cc="http://creativecommons.org/ns#"
   xmlns:rdf="http://www.w3.org/1999/02/22-rdf-syntax-ns#"
   xmlns:svg="http://www.w3.org/2000/svg"
   xmlns="http://www.w3.org/2000/svg"
   xmlns:sodipodi="http://sodipodi.sourceforge.net/DTD/sodipodi-0.dtd"
   xmlns:inkscape="http://www.inkscape.org/namespaces/inkscape"
   id="svg"
   version="1.1"
   width="500"
   height="500"
   style="display: block;"
   inkscape:version="0.48.4 r"
   sodipodi:docname="waracle-logo2.svg">
  <metadata
     id="metadata3361">
    <rdf:RDF>
      <cc:Work
         rdf:about="">
        <dc:format>image/svg+xml</dc:format>
        <dc:type
           rdf:resource="http://purl.org/dc/dcmitype/StillImage" />
      </cc:Work>
    </rdf:RDF>
  </metadata>
  <defs
     id="defs3359" />
  <sodipodi:namedview
     pagecolor="#ffffff"
     bordercolor="#666666"
     borderopacity="1"
     objecttolerance="10"
     gridtolerance="10"
     guidetolerance="10"
     inkscape:pageopacity="0"
     inkscape:pageshadow="2"
     inkscape:window-width="640"
     inkscape:window-height="480"
     id="namedview3357"
     showgrid="false"
     inkscape:zoom="0.472"
     inkscape:cx="250"
     inkscape:cy="250"
     inkscape:window-x="2906"
     inkscape:window-y="430"
     inkscape:window-maximized="0"
     inkscape:current-layer="svg" />
  <g
     id="svgg"
     transform="translate(55.084746,48.728814)">
    <path
       id="path0"
       d="m 258.4,15.2 c 0,3.2 0.343,5.6 0.8,5.6 0.44,0 0.8,0.54 0.8,1.2 0,0.66 -0.306,1.2 -0.679,1.2 -0.374,0 -0.897,3.838 -1.163,8.53 -0.266,4.691 -0.799,8.741 -1.186,9 -0.386,0.258 -1.172,2.72 -1.746,5.47 -0.575,2.75 -1.298,5 -1.608,5 -0.31,0 -1.006,1.98 -1.548,4.4 -0.542,2.42 -1.262,4.4 -1.601,4.4 -0.339,0 -1.047,1.44 -1.574,3.2 -0.528,1.76 -1.276,3.2 -1.664,3.2 -0.387,0 -0.946,1.104 -1.243,2.454 -0.296,1.35 -1.023,2.64 -1.615,2.867 -0.591,0.227 -1.299,1.433 -1.573,2.679 -0.274,1.246 -1.016,2.465 -1.649,2.708 -0.633,0.243 -1.151,0.98 -1.151,1.639 0,0.658 -0.72,1.582 -1.6,2.053 -0.88,0.471 -1.6,1.395 -1.6,2.053 0,0.659 -0.507,1.392 -1.127,1.63 -0.619,0.237 -1.563,1.486 -2.097,2.774 -0.533,1.289 -1.298,2.343 -1.698,2.343 -0.401,0 -0.949,0.63 -1.219,1.4 -0.271,0.77 -2.419,3.259 -4.775,5.531 -2.356,2.272 -4.284,4.39 -4.284,4.705 0,0.316 -1.62,2.195 -3.6,4.175 -1.98,1.98 -3.6,3.912 -3.6,4.294 0,0.382 -0.495,0.695 -1.1,0.695 -0.604,0 -3.32,2.16 -6.035,4.8 -2.715,2.64 -5.177,4.8 -5.472,4.8 -0.295,0 -1.269,0.707 -2.165,1.57 -4.952,4.776 -7.611,6.965 -9.508,7.83 -1.166,0.531 -2.12,1.333 -2.12,1.783 0,0.449 -0.52,0.817 -1.155,0.817 -0.635,0 -1.625,0.63 -2.2,1.4 -0.575,0.77 -2.125,1.939 -3.445,2.599 -1.32,0.659 -2.688,1.649 -3.04,2.2 -0.352,0.55 -0.996,1.001 -1.432,1.001 -0.801,0 -4.977,2.758 -6.964,4.6 -0.593,0.55 -1.604,1 -2.246,1 -0.643,0 -1.367,0.518 -1.61,1.151 -0.243,0.633 -1.516,1.387 -2.829,1.676 -1.313,0.288 -2.558,0.969 -2.766,1.512 -0.209,0.544 -1.625,1.477 -3.146,2.074 -1.522,0.597 -2.767,1.387 -2.767,1.756 0,0.369 -0.9,1.013 -2,1.431 -1.1,0.418 -2,1.129 -2,1.58 0,0.451 -0.551,0.82 -1.225,0.82 -0.674,0 -1.432,0.54 -1.686,1.2 -0.253,0.66 -0.894,1.2 -1.424,1.2 -0.53,0 -1.736,0.72 -2.681,1.6 -0.944,0.88 -2.089,1.6 -2.544,1.6 -0.454,0 -1.276,0.72 -1.826,1.6 -0.549,0.88 -1.414,1.6 -1.922,1.6 -0.508,0 -1.772,0.894 -2.808,1.986 -1.036,1.093 -2.244,1.996 -2.684,2.008 -0.44,0.012 -2.06,1.455 -3.6,3.206 -1.54,1.751 -3.107,3.188 -3.482,3.192 -0.834,0.01 -19.718,18.746 -19.718,19.563 0,0.32 -1.26,1.697 -2.8,3.06 -1.54,1.364 -2.8,2.935 -2.8,3.492 0,0.558 -0.469,1.301 -1.043,1.653 -0.574,0.352 -2.284,2.431 -3.8,4.621 -2.798,4.04 -3.721,5.302 -5.157,7.047 -0.44,0.534 -1.339,2.052 -1.999,3.372 -0.659,1.32 -1.379,2.58 -1.6,2.8 -1.38,1.376 -7.741,14.2 -8.432,17 -0.298,1.21 -0.863,2.2 -1.256,2.2 -0.392,0 -0.713,0.874 -0.713,1.943 0,1.068 -0.53,2.473 -1.178,3.121 -0.648,0.647 -1.412,2.743 -1.699,4.657 -0.287,1.913 -0.979,4.559 -1.539,5.879 C 69.54,259.336 68,269.018 68,273.907 c 0,1.979 -0.36,3.821 -0.8,4.093 -1.07,0.661 -1.07,19.6 0,19.6 0.44,0 0.8,1.506 0.8,3.346 0,4.804 1.709,17.454 2.358,17.454 0.302,0 1.014,2.34 1.582,5.2 0.569,2.86 1.323,5.2 1.677,5.2 0.353,0 0.886,1.44 1.183,3.2 0.297,1.76 0.869,3.2 1.27,3.2 0.402,0 0.73,0.422 0.73,0.937 0,1.319 4.819,11.063 5.471,11.063 0.296,0 1.035,1.121 1.641,2.491 1.339,3.024 14.809,16.637 18.115,18.308 1.305,0.659 2.645,1.621 2.978,2.137 0.332,0.517 1.682,1.176 3,1.465 1.317,0.289 2.395,0.851 2.395,1.247 0,0.397 0.9,0.947 2,1.223 1.1,0.277 2,0.766 2,1.088 0,0.322 1.44,1.06 3.2,1.641 1.76,0.581 3.2,1.301 3.2,1.601 0,0.3 1.44,0.977 3.2,1.504 1.76,0.528 3.2,1.305 3.2,1.727 0,2.508 4.014,-0.558 13.2,-10.082 5.72,-5.93 13.73,-14.192 17.8,-18.36 4.07,-4.167 7.4,-7.863 7.4,-8.212 0,-0.348 1.792,-2.421 3.983,-4.606 2.19,-2.185 3.99,-4.215 4,-4.513 0.009,-0.297 1.727,-2.337 3.817,-4.534 4.229,-4.445 7.661,-8.597 8.067,-9.76 0.242,-0.695 3.293,-4.173 7.363,-8.393 0.863,-0.896 1.57,-1.937 1.57,-2.314 0,-0.376 1.08,-1.717 2.4,-2.978 1.32,-1.262 2.4,-2.561 2.401,-2.887 0.001,-0.565 2.439,-3.787 5.141,-6.793 0.692,-0.77 1.258,-1.757 1.258,-2.193 0,-0.436 0.72,-1.243 1.6,-1.793 0.88,-0.549 1.6,-1.379 1.6,-1.844 0,-0.862 1.782,-3.458 4.08,-5.945 0.704,-0.761 1.781,-2.519 2.395,-3.905 0.614,-1.386 1.397,-2.52 1.74,-2.52 0.344,0 0.967,-0.9 1.385,-2 0.418,-1.1 1.062,-2 1.431,-2 0.369,0 1.159,-1.245 1.756,-2.767 0.597,-1.521 1.564,-2.95 2.149,-3.175 0.585,-0.224 1.064,-0.959 1.064,-1.633 0,-0.674 0.369,-1.225 0.82,-1.225 0.451,0 1.162,-0.9 1.58,-2 0.418,-1.1 1.101,-2 1.517,-2 0.416,0 0.998,-1.104 1.295,-2.454 0.296,-1.35 0.984,-2.625 1.527,-2.833 0.544,-0.209 1.477,-1.625 2.074,-3.146 0.597,-1.522 1.306,-2.767 1.576,-2.767 0.269,0 0.945,-1.26 1.502,-2.8 0.557,-1.54 1.321,-2.8 1.699,-2.8 0.377,0 1.125,-1.35 1.661,-3 0.536,-1.65 1.464,-3.288 2.062,-3.64 0.598,-0.352 1.087,-1.162 1.087,-1.8 0,-0.638 0.302,-1.16 0.672,-1.16 0.37,0 1.147,-1.44 1.728,-3.2 0.581,-1.76 1.291,-3.2 1.579,-3.2 0.287,0 1.017,-1.26 1.621,-2.8 0.604,-1.54 1.334,-2.8 1.621,-2.8 0.288,0 0.998,-1.44 1.579,-3.2 0.581,-1.76 1.316,-3.2 1.633,-3.2 0.317,0 0.985,-1.62 1.484,-3.6 0.498,-1.98 1.232,-3.6 1.631,-3.6 0.399,0 0.962,-1.08 1.252,-2.4 0.29,-1.32 0.816,-2.4 1.169,-2.4 0.352,0 1.049,-1.62 1.548,-3.6 0.498,-1.98 1.225,-3.6 1.615,-3.6 0.39,0 1.14,-1.8 1.668,-4 0.528,-2.2 1.226,-4 1.552,-4 0.326,0 1.067,-1.98 1.648,-4.4 0.581,-2.42 1.27,-4.4 1.533,-4.4 0.566,0 2.467,-5.846 2.467,-7.587 0,-0.667 0.36,-1.213 0.8,-1.213 0.483,0 0.8,3.333 0.8,8.4 0,5.067 -0.317,8.4 -0.8,8.4 -0.44,0 -0.799,1.89 -0.798,4.2 0.003,5.98 -1.581,21.502 -2.389,23.4 -0.374,0.88 -1.109,5.02 -1.633,9.2 -0.524,4.18 -1.227,7.96 -1.561,8.4 -0.335,0.44 -1.063,3.32 -1.619,6.4 -0.556,3.08 -1.276,5.96 -1.6,6.4 -0.324,0.44 -1.038,3.234 -1.587,6.21 -0.549,2.975 -1.285,5.587 -1.636,5.804 -0.351,0.217 -0.881,1.832 -1.178,3.59 -0.297,1.758 -0.819,3.196 -1.16,3.196 -0.341,0 -1.079,2.16 -1.639,4.8 -0.56,2.64 -1.284,4.8 -1.609,4.8 -0.325,0 -0.807,1.08 -1.071,2.4 -0.264,1.32 -1.209,4 -2.1,5.956 -0.891,1.956 -1.62,3.955 -1.62,4.442 0,0.487 -0.689,2.216 -1.531,3.844 -0.842,1.627 -3.186,6.378 -5.207,10.558 -3.693,7.633 -6.079,12.056 -6.907,12.8 -0.245,0.22 -0.919,1.57 -1.497,3 -0.579,1.43 -1.29,2.6 -1.58,2.6 -0.29,0 -0.959,0.99 -1.486,2.2 -1.452,3.331 -4.056,7.429 -7.075,11.135 -1.494,1.834 -2.717,3.559 -2.717,3.833 0,0.62 -0.3,1.001 -6.758,8.598 -2.883,3.392 -5.242,6.384 -5.242,6.649 0,0.635 -20.031,20.551 -21.71,21.585 -1.113,0.686 -4.229,3.212 -13.29,10.776 -0.99,0.827 -1.8,1.89 -1.8,2.363 0,1.972 45.869,0.525 47.193,-1.488 0.224,-0.34 3.377,-1.096 7.007,-1.679 3.63,-0.583 6.6,-1.324 6.6,-1.646 0,-0.322 1.447,-0.83 3.216,-1.129 1.769,-0.299 3.723,-1.05 4.343,-1.67 0.62,-0.62 1.577,-1.127 2.127,-1.127 1.298,0 6.595,-1.847 7.114,-2.48 0.22,-0.268 1.75,-0.928 3.4,-1.466 1.65,-0.538 3,-1.282 3,-1.652 0,-0.371 1.08,-0.912 2.4,-1.202 1.32,-0.29 2.4,-0.791 2.4,-1.114 0,-0.323 1.26,-1.082 2.8,-1.686 1.54,-0.604 2.8,-1.348 2.8,-1.652 0,-0.305 1.08,-1.001 2.4,-1.548 1.32,-0.547 2.4,-1.267 2.4,-1.6 0,-0.333 1.08,-1.053 2.4,-1.6 1.32,-0.547 2.4,-1.31 2.4,-1.697 0,-0.387 0.537,-0.703 1.193,-0.703 0.656,0 1.643,-0.72 2.193,-1.6 0.549,-0.88 1.362,-1.606 1.806,-1.614 0.445,-0.007 1.656,-0.907 2.692,-2 1.036,-1.092 2.191,-1.986 2.566,-1.986 0.374,0 2.645,-1.98 5.046,-4.4 2.401,-2.42 4.676,-4.4 5.057,-4.4 0.79,0 3.441,-2.918 3.459,-3.809 0.007,-0.325 1.807,-2.336 4,-4.47 2.194,-2.133 3.988,-4.322 3.988,-4.864 0,-0.543 0.9,-1.468 2,-2.057 1.1,-0.589 2,-1.482 2,-1.984 0,-0.503 0.63,-1.612 1.4,-2.465 0.77,-0.853 1.939,-2.631 2.599,-3.951 0.659,-1.32 1.649,-2.688 2.2,-3.04 0.55,-0.352 1.001,-1.107 1.001,-1.677 0,-0.571 0.73,-1.88 1.622,-2.908 0.892,-1.029 1.831,-2.704 2.087,-3.723 0.255,-1.018 0.757,-1.852 1.114,-1.852 0.358,0 0.887,-1.08 1.177,-2.4 0.29,-1.32 0.853,-2.4 1.252,-2.4 0.399,0 1.133,-1.62 1.631,-3.6 0.499,-1.98 1.167,-3.6 1.484,-3.6 0.318,0 1.052,-1.98 1.633,-4.4 0.581,-2.42 1.317,-4.4 1.637,-4.4 0.32,0 1.023,-2.34 1.563,-5.2 0.54,-2.86 1.247,-5.2 1.572,-5.2 0.326,0 1.063,-3.87 1.638,-8.6 0.576,-4.73 1.439,-8.857 1.918,-9.171 1.217,-0.798 1.224,-58.855 0.008,-59.658 -0.476,-0.314 -1.329,-4.801 -1.896,-9.971 -0.567,-5.17 -1.285,-9.4 -1.595,-9.4 -0.311,0 -1.051,-3.42 -1.645,-7.6 -0.594,-4.18 -1.329,-7.6 -1.633,-7.6 -0.304,0 -1.033,-2.7 -1.619,-6 -0.587,-3.3 -1.314,-6 -1.617,-6 -0.302,0 -0.991,-2.34 -1.531,-5.2 -0.54,-2.86 -1.26,-5.2 -1.6,-5.2 -0.34,0 -0.861,-1.62 -1.158,-3.6 -0.297,-1.98 -0.829,-3.6 -1.182,-3.6 -0.353,0 -1.1,-2.16 -1.66,-4.8 -0.56,-2.64 -1.272,-4.8 -1.582,-4.8 -0.309,0 -1.037,-1.98 -1.618,-4.4 -0.581,-2.42 -1.293,-4.4 -1.583,-4.4 -0.29,0 -1.018,-1.8 -1.617,-4 -0.599,-2.2 -1.351,-4 -1.671,-4 -0.319,0 -1.042,-1.8 -1.606,-4 -0.564,-2.2 -1.317,-4 -1.674,-4 -0.357,0 -0.649,-0.514 -0.649,-1.143 0,-0.628 -0.471,-1.618 -1.046,-2.2 -0.575,-0.581 -1.522,-2.767 -2.104,-4.857 -0.582,-2.09 -1.331,-3.8 -1.666,-3.8 -0.334,0 -1.086,-1.62 -1.67,-3.6 -0.585,-1.98 -1.288,-3.6 -1.562,-3.6 -0.274,0 -0.93,-1.44 -1.457,-3.2 -0.528,-1.76 -1.258,-3.2 -1.623,-3.2 -0.365,0 -1.118,-1.62 -1.672,-3.6 -0.554,-1.98 -1.293,-3.6 -1.642,-3.6 -0.349,0 -1.076,-1.34 -1.617,-2.978 -0.54,-1.638 -1.468,-3.463 -2.062,-4.057 -0.593,-0.594 -1.079,-1.594 -1.079,-2.222 0,-0.629 -0.293,-1.143 -0.651,-1.143 -0.358,0 -1.145,-1.26 -1.749,-2.8 -0.604,-1.54 -1.334,-2.8 -1.621,-2.8 -0.288,0 -0.998,-1.44 -1.579,-3.2 -0.581,-1.76 -1.291,-3.2 -1.579,-3.2 -0.287,0 -1.017,-1.26 -1.621,-2.8 -0.604,-1.54 -1.352,-2.8 -1.663,-2.8 -0.31,0 -0.773,-0.834 -1.028,-1.852 -0.256,-1.019 -1.195,-2.694 -2.087,-3.723 C 276.73,34.997 276,33.709 276,33.163 c 0,-0.545 -0.506,-1.186 -1.125,-1.423 -0.618,-0.238 -1.367,-1.536 -1.663,-2.886 -0.297,-1.35 -0.879,-2.454 -1.295,-2.454 -0.416,0 -1.099,-0.9 -1.517,-2 -0.418,-1.1 -1.101,-2 -1.517,-2 -0.416,0 -0.993,-1.078 -1.282,-2.395 -0.289,-1.318 -0.948,-2.668 -1.465,-3 C 265.62,16.672 264.658,15.32 263.999,14 260.835,7.665 258.4,8.187 258.4,15.2 m -140,-0.467 c 0,0.624 0.428,1.276 0.951,1.451 1.263,0.421 1.177,22.44 -0.09,22.862 -0.473,0.158 -0.861,1.457 -0.861,2.887 0,3.112 -1.664,11.902 -2.361,12.467 -0.271,0.22 -0.963,2.739 -1.538,5.597 -0.575,2.859 -1.321,5.379 -1.659,5.6 -0.338,0.222 -1.093,2.293 -1.679,4.603 -0.586,2.31 -1.341,4.2 -1.678,4.2 -0.337,0 -0.849,1.26 -1.138,2.8 -0.289,1.54 -0.831,2.8 -1.204,2.8 -0.373,0 -1.11,1.44 -1.638,3.2 -0.527,1.76 -1.247,3.2 -1.6,3.2 -0.352,0 -1.072,1.44 -1.6,3.2 -0.527,1.76 -1.204,3.2 -1.504,3.2 -0.3,0 -1.02,1.44 -1.601,3.2 -0.581,1.76 -1.291,3.2 -1.579,3.2 -0.287,0 -1.017,1.26 -1.621,2.8 -0.604,1.54 -1.348,2.8 -1.652,2.8 -0.305,0 -1.034,1.17 -1.621,2.6 -0.587,1.43 -1.358,2.96 -1.712,3.4 -0.355,0.44 -1.347,1.653 -2.206,2.695 -0.859,1.042 -1.776,2.572 -2.039,3.4 -0.263,0.828 -0.77,1.505 -1.127,1.505 -0.357,0 -1.096,1.08 -1.643,2.4 -0.547,1.32 -1.223,2.4 -1.502,2.4 -0.279,0 -1.019,1.17 -1.645,2.6 -0.625,1.43 -1.793,3.07 -2.595,3.645 -0.802,0.575 -1.458,1.565 -1.458,2.2 0,0.635 -0.371,1.155 -0.825,1.155 -0.454,0 -1.063,0.62 -1.354,1.377 -0.29,0.757 -1.449,2.291 -2.575,3.408 -1.125,1.117 -2.557,3.018 -3.181,4.223 -0.625,1.206 -1.391,2.192 -1.703,2.192 -0.312,0 -1.015,1.08 -1.562,2.4 -0.547,1.32 -1.267,2.4 -1.6,2.4 -0.333,0 -1.079,1.17 -1.658,2.6 -0.578,1.43 -1.252,2.78 -1.497,3 -0.875,0.786 -2.521,3.649 -3.794,6.6 -0.711,1.65 -1.563,3 -1.893,3 -0.329,0 -1.03,1.8 -1.558,4 -0.528,2.2 -1.226,4 -1.552,4 -0.326,0 -1.067,1.98 -1.648,4.4 -0.581,2.42 -1.309,4.4 -1.618,4.4 -0.31,0 -1.033,2.25 -1.608,5 -0.574,2.75 -1.302,5.18 -1.618,5.4 -0.317,0.22 -1.01,3.82 -1.542,8 -0.531,4.18 -1.292,8.225 -1.69,8.989 -0.884,1.696 -0.977,37.411 -0.097,37.411 0.344,0 1.085,3.861 1.645,8.581 0.561,4.72 1.307,8.77 1.658,9 0.352,0.23 0.89,1.859 1.197,3.619 1.443,8.27 3.334,8.454 4.128,0.4 0.303,-3.08 0.786,-5.6 1.072,-5.6 0.286,0 0.986,-2.966 1.557,-6.59 0.57,-3.625 1.344,-6.78 1.72,-7.013 0.376,-0.232 1.106,-2.846 1.622,-5.81 0.516,-2.963 1.245,-5.387 1.62,-5.387 0.375,0 0.918,-1.26 1.207,-2.8 0.289,-1.54 0.773,-2.8 1.076,-2.8 0.303,0 0.997,-2.16 1.542,-4.8 0.546,-2.64 1.28,-4.8 1.633,-4.8 0.352,0 1.115,-1.98 1.696,-4.4 0.581,-2.42 1.344,-4.4 1.696,-4.4 0.352,0 1.071,-1.44 1.599,-3.2 0.527,-1.76 1.222,-3.2 1.545,-3.2 0.323,0 0.796,-0.834 1.051,-1.852 0.256,-1.019 1.195,-2.694 2.087,-3.723 0.892,-1.028 1.622,-2.355 1.622,-2.947 0,-0.593 0.34,-1.078 0.756,-1.078 0.416,0 1.226,-0.855 1.8,-1.899 3.047,-5.545 4.151,-7.298 5.529,-8.777 0.833,-0.894 1.515,-1.929 1.515,-2.3 0,-0.37 1.26,-1.83 2.8,-3.243 1.54,-1.414 2.8,-2.869 2.8,-3.236 0,-0.796 21.448,-22.145 22.249,-22.145 0.306,0 1.576,-1.08 2.821,-2.4 1.246,-1.32 2.689,-2.4 3.205,-2.4 0.517,0 1.39,-0.72 1.939,-1.6 0.55,-0.88 1.408,-1.6 1.906,-1.6 0.499,0 1.939,-1.08 3.2,-2.4 1.262,-1.32 2.662,-2.4 3.112,-2.4 0.45,0 1.025,-0.54 1.279,-1.2 0.253,-0.66 0.872,-1.2 1.375,-1.201 0.503,-0.001 1.948,-0.89 3.212,-1.977 1.264,-1.087 2.974,-2.191 3.8,-2.453 0.826,-0.262 1.502,-0.777 1.502,-1.145 0,-0.367 1.08,-1.044 2.4,-1.504 1.32,-0.46 2.4,-1.143 2.4,-1.518 0,-0.374 1.26,-1.136 2.8,-1.693 1.54,-0.557 2.8,-1.314 2.8,-1.683 0,-0.368 1.08,-1.046 2.4,-1.506 1.32,-0.46 2.4,-1.187 2.4,-1.615 0,-0.428 1.08,-1.015 2.4,-1.305 1.32,-0.29 2.4,-0.791 2.4,-1.114 0,-0.323 1.26,-1.082 2.8,-1.686 1.54,-0.604 2.8,-1.367 2.8,-1.695 0,-0.329 0.81,-0.846 1.8,-1.15 3.652,-1.123 6.2,-5.622 6.2,-10.95 0,-1.213 0.36,-2.205 0.8,-2.205 0.444,0 0.8,-2.133 0.8,-4.8 0,-2.667 -0.356,-4.8 -0.8,-4.8 -0.44,0 -0.8,-1.128 -0.8,-2.508 0,-3.574 -1.766,-12.692 -2.458,-12.692 -0.321,0 -1.014,-1.8 -1.542,-4 -0.528,-2.2 -1.226,-4 -1.552,-4 -0.325,0 -1.067,-1.44 -1.648,-3.2 -0.581,-1.76 -1.286,-3.2 -1.567,-3.2 -0.282,0 -0.967,-1.26 -1.524,-2.8 -0.557,-1.54 -1.349,-2.8 -1.761,-2.8 -0.411,0 -0.748,-0.416 -0.748,-0.924 0,-0.509 -0.9,-2.105 -2,-3.547 -1.1,-1.442 -2,-2.968 -2,-3.39 0,-0.422 -0.54,-0.975 -1.2,-1.228 -0.66,-0.254 -1.2,-0.881 -1.2,-1.394 0,-0.514 -0.81,-1.722 -1.8,-2.686 -0.99,-0.964 -2.415,-2.625 -3.166,-3.692 -2.976,-4.227 -4.45,-5.928 -9.898,-11.424 -3.115,-3.143 -5.897,-6.353 -6.182,-7.133 -0.285,-0.78 -1.13,-1.653 -1.879,-1.941 -0.749,-0.287 -3.325,-2.439 -5.725,-4.782 -4.225,-4.125 -7.35,-5.454 -7.35,-3.126"
       inkscape:connector-curvature="0"
       style="fill:#4cf9ff;fill-rule:evenodd;stroke:none" />
  </g>
</svg>
